<?xml version="1.0" standalone="no"?>
<!DOCTYPE svg PUBLIC "-//W3C//DTD SVG 20010904//EN"
 "http://www.w3.org/TR/2001/REC-SVG-20010904/DTD/svg10.dtd">
<svg version="1.0" xmlns="http://www.w3.org/2000/svg"
 width="512.000000pt" height="512.000000pt" viewBox="0 0 512.000000 512.000000"
 preserveAspectRatio="xMidYMid meet">
<metadata>
Created by potrace 1.11, written by Peter Selinger 2001-2013
</metadata>
<g transform="translate(0.000000,512.000000) scale(0.100000,-0.100000)"
fill="#000000" stroke="none">
<path d="M2437 5105 c-113 -29 -203 -85 -290 -181 -64 -72 -122 -212 -126
-306 -1 -10 -8 -18 -17 -18 -27 0 -190 -50 -291 -89 -231 -90 -428 -204 -618
-357 -129 -103 -280 -254 -350 -349 -17 -22 -36 -47 -44 -55 -43 -44 -180
-270 -240 -393 -128 -265 -194 -507 -226 -823 -6 -56 -4 -64 20 -92 33 -39 88
-44 123 -12 26 24 27 29 47 185 51 391 206 758 445 1060 79 99 252 273 345
347 212 168 490 311 739 381 l87 25 10 -27 c49 -131 147 -238 274 -301 86 -42
123 -51 228 -55 230 -9 448 149 522 380 28 86 26 248 -5 328 -46 122 -118 213
-222 281 -109 72 -286 102 -411 71z"/>
<path d="M3688 4323 c-30 -19 -45 -65 -34 -107 4 -16 34 -42 88 -79 693 -456
1060 -1258 954 -2082 -7 -51 -12 -81 -32 -181 l-17 -81 -101 0 c-158 1 -281
-50 -390 -159 -181 -180 -209 -458 -69 -671 49 -75 137 -151 218 -189 87 -41
125 -49 245 -49 75 0 109 5 160 24 218 80 361 277 362 500 0 91 -5 122 -37
207 -30 79 -94 164 -167 223 l-55 43 23 102 c13 55 26 124 30 151 3 28 8 53
10 57 6 9 18 222 18 308 0 730 -340 1413 -924 1856 -101 77 -196 135 -227 140
-16 2 -40 -4 -55 -13z"/>
<path d="M528 1795 c-2 -2 -22 -5 -45 -9 -90 -12 -199 -71 -279 -150 -61 -62
-94 -112 -122 -188 -29 -77 -34 -108 -33 -203 0 -100 27 -191 80 -271 49 -73
64 -90 121 -135 136 -109 298 -144 470 -100 46 11 88 25 92 29 5 5 52 -35 106
-88 356 -354 816 -584 1307 -656 183 -26 504 -26 680 1 169 27 427 98 533 147
60 29 80 70 58 121 -27 65 -62 68 -201 17 -228 -85 -473 -127 -735 -128 -131
0 -180 4 -330 23 -84 11 -309 68 -375 95 -11 4 -54 20 -95 36 -240 91 -501
261 -711 464 l-82 78 36 44 c55 67 90 145 113 253 10 44 4 159 -12 218 -23 91
-68 168 -141 241 -103 104 -216 155 -357 160 -42 2 -77 2 -78 1z"/>
</g>
</svg>
